<?xml version="1.0" standalone="no"?>
<!DOCTYPE svg PUBLIC "-//W3C//DTD SVG 20010904//EN"
 "http://www.w3.org/TR/2001/REC-SVG-20010904/DTD/svg10.dtd">
<svg version="1.0" xmlns="http://www.w3.org/2000/svg"
 width="433.000000pt" height="577.000000pt" viewBox="0 0 433.000000 577.000000"
 preserveAspectRatio="xMidYMid meet">

<g transform="translate(0.000000,577.000000) scale(0.100000,-0.100000)"
fill="#000000" stroke="none">
<path d="M1694 4006 c-37 -10 -62 -26 -170 -108 -66 -50 -77 -72 -87 -177 -9
-86 -7 -103 12 -167 12 -40 28 -77 36 -84 11 -9 12 -18 4 -38 -6 -15 -7 -23
-2 -19 4 5 16 -9 26 -30 l17 -38 -5 41 c-3 27 0 47 10 60 8 10 15 27 15 36 0
10 10 23 22 29 27 15 96 20 104 8 3 -5 -1 -9 -8 -9 -8 0 -29 -13 -48 -28 l-34
-29 69 -6 c41 -4 73 -3 79 3 7 7 5 10 -3 10 -10 0 -11 3 -2 14 10 11 7 17 -11
30 -12 9 -18 16 -14 16 18 0 45 -32 39 -46 -4 -10 0 -12 11 -8 22 8 16 50 -10
75 -46 43 -136 42 -183 -3 -16 -16 -32 -28 -35 -28 -12 0 -6 29 9 44 9 8 16
18 15 21 -4 63 0 72 48 102 51 33 112 52 112 34 0 -6 5 -11 11 -11 6 0 9 6 6
14 -11 27 89 48 123 26 11 -7 11 -10 2 -10 -9 0 -12 -10 -10 -27 4 -34 54 -64
69 -42 7 10 11 11 17 3 4 -7 16 -14 27 -17 18 -4 18 -5 -2 -6 -32 -1 -133 -68
-134 -89 -1 -9 0 -28 1 -41 1 -14 -2 -21 -9 -17 -14 9 -14 -1 -1 -17 22 -26
80 -120 80 -128 0 -8 -11 -10 -98 -14 -48 -3 -59 -25 -25 -52 30 -25 31 -24
-15 -47 -38 -20 -62 -15 -62 11 0 14 -2 15 -12 4 -11 -10 -10 -14 5 -22 9 -6
17 -15 17 -21 0 -6 8 -17 18 -25 21 -17 117 -63 130 -63 6 0 34 24 62 53 32
32 54 47 57 40 3 -7 9 -13 14 -13 14 0 6 79 -8 84 -7 3 -10 -1 -6 -10 4 -10
-2 -14 -20 -14 -36 0 -77 17 -76 32 0 10 2 10 6 0 7 -19 23 -4 23 23 0 13 5
25 11 27 7 2 0 18 -18 38 -56 65 -67 110 -26 110 15 0 15 -2 -3 -15 -18 -14
-18 -14 0 -15 10 0 24 6 30 14 9 12 58 24 104 26 10 0 10 4 0 20 -16 25 -57
34 -93 20 -24 -9 -26 -9 -16 4 18 22 59 28 98 15 26 -8 32 -14 22 -20 -11 -6
-9 -9 7 -9 12 0 25 -8 28 -17 6 -14 9 -15 15 -4 19 29 30 -1 26 -67 -2 -42 1
-72 8 -81 8 -10 8 -12 1 -8 -7 4 -10 -2 -6 -18 l4 -25 21 28 c12 15 25 30 29
33 15 10 32 115 23 135 -7 14 -10 1 -14 -48 -4 -36 -10 -70 -14 -75 -5 -4 -6
4 -2 19 4 15 3 33 -1 40 -13 19 -12 61 0 77 8 11 8 13 0 8 -8 -5 -10 14 -6 64
7 99 -15 248 -41 277 -11 12 -27 22 -34 22 -16 0 -21 4 -83 58 -65 57 -187 83
-276 58z m254 -301 c-3 -3 -9 2 -12 12 -6 14 -5 15 5 6 7 -7 10 -15 7 -18z
m-38 -5 c0 -13 -11 -13 -30 0 -12 8 -11 10 8 10 12 0 22 -4 22 -10z m153 -117
c5 -27 4 -30 -13 -26 -12 3 -20 14 -20 26 0 11 -16 35 -36 54 -22 19 -34 39
-31 47 9 22 92 -62 100 -101z m-219 -313 c-6 -6 -19 -7 -30 -3 -17 6 -17 8 6
13 29 8 38 4 24 -10z m76 -28 c0 -12 -68 -34 -105 -34 -69 -2 -65 5 10 22 100
22 95 22 95 12z"/>
<path d="M1690 3670 c0 -5 5 -10 11 -10 5 0 7 5 4 10 -3 6 -8 10 -11 10 -2 0
-4 -4 -4 -10z"/>
<path d="M2015 3470 c3 -5 8 -10 11 -10 2 0 4 5 4 10 0 6 -5 10 -11 10 -5 0
-7 -4 -4 -10z"/>
<path d="M1753 3453 c-15 -5 -18 -33 -4 -33 5 0 11 9 14 20 3 11 4 20 4 19 -1
0 -8 -3 -14 -6z"/>
<path d="M1484 3389 c-3 -6 -1 -16 5 -22 8 -8 11 -5 11 11 0 24 -5 28 -16 11z"/>
<path d="M2076 3208 c-11 -35 -14 -60 -7 -52 10 11 23 64 16 64 -3 0 -7 -6 -9
-12z"/>
<path d="M1690 3166 c0 -2 7 -6 15 -10 8 -3 15 -1 15 4 0 6 -7 10 -15 10 -8 0
-15 -2 -15 -4z"/>
<path d="M2024 3125 c-4 -8 -15 -15 -25 -15 -21 0 -26 -16 -7 -22 7 -3 5 -7
-6 -11 -10 -4 -15 -3 -11 3 9 15 -11 12 -24 -4 -9 -11 -9 -15 1 -18 8 -3 6 -7
-6 -11 -10 -4 -15 -3 -11 4 4 6 -2 8 -17 4 -56 -12 -160 -25 -168 -20 -5 3
-11 1 -14 -4 -7 -10 12 -19 63 -31 78 -19 231 51 246 113 8 29 -11 39 -21 12z"/>
<path d="M2098 3088 c10 -106 69 -134 129 -60 18 21 -19 69 -71 93 -61 28 -64
26 -58 -33z m103 -15 c13 -17 13 -17 -6 -3 -11 8 -22 16 -24 17 -2 2 0 3 6 3
6 0 17 -8 24 -17z"/>
<path d="M1985 2940 c-3 -5 -1 -10 4 -10 6 0 11 5 11 10 0 6 -2 10 -4 10 -3 0
-8 -4 -11 -10z"/>
<path d="M1800 2860 c0 -5 4 -10 9 -10 5 0 18 -3 28 -7 16 -6 16 -5 4 10 -15
19 -41 23 -41 7z"/>
<path d="M1770 2851 c0 -10 19 -25 25 -20 1 2 -3 10 -11 17 -8 7 -14 8 -14 3z"/>
<path d="M2377 2411 c-4 -17 -3 -21 5 -13 5 5 8 16 6 23 -3 8 -7 3 -11 -10z"/>
<path d="M2255 2410 c-3 -5 -1 -10 4 -10 6 0 11 5 11 10 0 6 -2 10 -4 10 -3 0
-8 -4 -11 -10z"/>
<path d="M2321 2404 c0 -11 3 -14 6 -6 3 7 2 16 -1 19 -3 4 -6 -2 -5 -13z"/>
<path d="M2345 2410 c-3 -5 -1 -10 4 -10 6 0 11 5 11 10 0 6 -2 10 -4 10 -3 0
-8 -4 -11 -10z"/>
<path d="M2345 2345 c-19 -9 -24 -14 -12 -15 14 0 16 -5 11 -27 -9 -38 7 -21
22 22 6 19 11 35 10 34 0 0 -14 -7 -31 -14z"/>
<path d="M2407 2342 c-23 -25 -21 -48 3 -48 11 0 20 6 20 14 0 7 -4 10 -10 7
-14 -9 -13 8 2 23 6 6 9 14 6 17 -2 3 -12 -3 -21 -13z"/>
<path d="M2279 2331 c-23 -19 -23 -20 -5 -34 10 -8 16 -19 12 -25 -4 -7 -5
-12 -2 -12 3 0 10 10 17 21 9 17 8 23 -2 30 -12 8 -11 11 1 18 8 6 12 13 9 16
-4 3 -17 -3 -30 -14z"/>
<path d="M2631 2225 c16 -26 19 -42 13 -63 -4 -15 -8 -37 -9 -49 -1 -18 2 -20
13 -10 12 9 20 5 42 -22 33 -39 51 -25 22 17 -25 34 -52 99 -52 123 0 16 -26
39 -44 39 -3 0 4 -16 15 -35z"/>
<path d="M1370 2230 c0 -6 6 -13 14 -16 12 -4 10 -13 -10 -41 -13 -20 -24 -40
-24 -44 0 -5 -9 -9 -20 -9 -11 0 -20 -4 -20 -8 0 -12 -90 -168 -90 -157 -1 9
-23 -22 -26 -35 0 -3 -6 -17 -12 -32 -6 -14 -14 -55 -18 -90 -8 -73 -45 -154
-100 -216 l-38 -43 -12 23 c-13 22 -13 21 -14 -18 0 -23 10 -63 21 -89 17 -39
20 -60 15 -107 -8 -81 -38 -191 -54 -201 -10 -7 -10 -12 -2 -22 11 -13 6 -65
-7 -87 -2 -4 -18 1 -36 11 l-32 18 0 146 c0 80 -4 149 -8 153 -4 4 -7 -4 -7
-18 0 -33 -10 -41 -26 -20 -7 9 -15 15 -17 12 -3 -3 -12 -43 -20 -89 -13 -77
-13 -89 5 -160 10 -42 24 -86 30 -98 23 -45 8 -92 -28 -93 -22 0 -25 30 -4 38
18 7 19 10 7 25 -7 10 -19 19 -27 20 -28 5 -62 42 -86 92 -12 28 -23 44 -23
36 -1 -19 58 -139 87 -178 l24 -33 -23 0 c-13 0 -35 9 -49 20 -14 11 -33 20
-43 20 -9 0 -32 20 -49 45 -17 25 -34 43 -36 41 -10 -11 74 -147 93 -151 11
-2 138 -7 283 -10 l263 -6 -15 30 c-16 29 -13 61 5 61 5 0 9 -7 9 -16 0 -23
55 -74 80 -74 21 0 19 3 -14 40 -20 22 -36 45 -36 50 0 21 30 9 52 -20 23 -32
45 -22 27 11 -12 23 -12 42 1 34 6 -3 10 -1 10 4 0 6 7 11 16 11 11 0 14 5 10
16 -3 9 -6 18 -6 20 0 2 -9 4 -20 4 -11 0 -20 7 -20 15 0 8 7 15 16 15 11 0
14 6 8 23 -3 12 -11 24 -15 25 -5 2 -9 24 -9 48 0 28 -4 44 -12 44 -9 0 -9 3
0 12 7 7 12 39 12 75 0 48 3 63 14 63 8 0 36 11 61 25 35 18 58 23 92 21 25
-2 48 -8 52 -14 4 -6 22 -7 46 -2 23 5 30 8 17 9 -15 1 -26 9 -29 20 -3 11
-10 18 -17 15 -15 -6 -36 37 -36 75 0 35 18 91 36 112 9 10 12 27 8 47 -4 21
-1 40 10 57 22 33 21 40 -13 88 -36 54 -56 100 -69 162 -6 28 -18 67 -26 88
-16 36 -18 37 -66 37 -27 0 -51 3 -53 8 -2 4 0 26 5 50 7 33 16 45 35 53 21 8
23 12 13 24 -14 17 -60 20 -60 5z m-70 -200 c0 -5 -5 -10 -11 -10 -5 0 -7 5
-4 10 3 6 8 10 11 10 2 0 4 -4 4 -10z m50 -20 c0 -5 -2 -10 -4 -10 -3 0 -8 5
-11 10 -3 6 -1 10 4 10 6 0 11 -4 11 -10z m-20 -30 c0 -5 -2 -10 -4 -10 -3 0
-8 5 -11 10 -3 6 -1 10 4 10 6 0 11 -4 11 -10z m173 -35 c-7 -21 -13 -19 -13
6 0 11 4 18 10 14 5 -3 7 -12 3 -20z m-102 -37 c24 -18 59 -73 59 -93 0 -1
-20 7 -45 18 -42 19 -59 37 -35 37 6 0 10 7 10 15 0 8 -4 15 -9 15 -5 0 -11 7
-15 15 -7 20 0 19 35 -7z m119 -24 c0 -8 -5 -12 -10 -9 -6 4 -8 11 -5 16 9 14
15 11 15 -7z m10 -84 c0 -22 -1 -23 -24 -14 -13 5 -14 9 -5 20 16 20 29 17 29
-6z m-8 -69 c6 -10 18 -17 25 -14 7 3 13 -2 13 -11 0 -20 -5 -20 -63 0 -32 11
-44 20 -40 30 8 20 51 17 65 -5z m-15 -68 c40 -13 53 -21 53 -36 0 -21 0 -21
-90 4 -55 15 -52 13 -44 33 8 20 14 20 81 -1z m8 -89 c28 -11 35 -18 27 -26
-18 -18 -136 12 -140 36 -4 17 1 18 35 13 22 -4 57 -14 78 -23z m-185 -424 c0
-5 -4 -10 -9 -10 -6 0 -13 5 -16 10 -3 6 1 10 9 10 9 0 16 -4 16 -10z m0 -75
c0 -8 -4 -15 -9 -15 -13 0 -22 16 -14 24 11 11 23 6 23 -9z m7 -50 c8 -22 -6
-33 -17 -15 -13 20 -12 30 0 30 6 0 13 -7 17 -15z m-57 -11 c0 -8 -4 -12 -10
-9 -5 3 -10 10 -10 16 0 5 5 9 10 9 6 0 10 -7 10 -16z"/>
<path d="M2933 2117 c-51 -17 -91 -32 -89 -34 11 -11 131 12 147 28 9 9 25 19
36 21 10 2 14 6 8 10 -5 3 -52 -8 -102 -25z"/>
<path d="M3060 2112 c0 -18 25 -42 44 -42 13 0 49 -9 82 -21 105 -36 102 -36
79 -10 -37 42 -104 74 -156 75 -27 1 -49 0 -49 -2z"/>
<path d="M2933 2070 c-12 -5 -24 -21 -28 -39 -7 -33 7 -72 19 -52 4 6 14 11
22 11 9 0 31 12 50 26 l34 26 -24 19 c-26 21 -40 22 -73 9z"/>
<path d="M2758 2063 c7 -3 16 -2 19 1 4 3 -2 6 -13 5 -11 0 -14 -3 -6 -6z"/>
<path d="M3090 2050 c0 -5 5 -10 11 -10 5 0 7 5 4 10 -3 6 -8 10 -11 10 -2 0
-4 -4 -4 -10z"/>
<path d="M3145 2026 c11 -7 31 -17 45 -20 23 -7 23 -6 -5 13 -16 12 -37 21
-45 21 -10 0 -9 -4 5 -14z"/>
<path d="M3090 2020 c0 -6 8 -14 18 -17 9 -4 27 -18 40 -32 13 -14 36 -39 51
-56 30 -32 87 -119 80 -121 -8 -3 34 -44 45 -44 6 0 1 8 -11 18 -17 13 -20 21
-13 32 9 13 12 13 21 -3 15 -25 61 -66 82 -73 9 -3 17 -10 17 -15 0 -5 5 -9
11 -9 7 0 8 12 4 33 -9 46 -26 87 -36 87 -5 0 -9 7 -9 15 0 23 -30 65 -46 65
-8 0 -14 6 -14 13 0 6 -10 23 -23 37 -12 14 -18 20 -13 13 5 -8 4 -13 -2 -13
-6 0 -16 9 -22 20 -13 24 -55 27 -64 5 -9 -25 -33 -17 -63 20 -27 34 -53 46
-53 25z m169 -84 c9 -10 8 -16 -4 -26 -19 -16 -41 1 -32 24 8 20 21 20 36 2z
m61 -56 c0 -5 -5 -12 -11 -16 -14 -8 -33 11 -25 25 7 11 36 4 36 -9z m40 -34
c0 -15 -24 -28 -34 -19 -13 14 -5 33 14 33 11 0 20 -6 20 -14z m-80 -6 c0 -5
-2 -10 -4 -10 -3 0 -8 5 -11 10 -3 6 -1 10 4 10 6 0 11 -4 11 -10z m83 -39
c-3 -12 2 -20 16 -24 12 -3 21 -13 21 -23 0 -16 -2 -16 -22 2 -13 10 -24 19
-24 19 -1 0 -5 10 -8 23 -5 16 -3 22 7 22 10 0 13 -7 10 -19z"/>
<path d="M2672 2000 c-6 -11 -12 -28 -11 -37 0 -14 2 -15 6 -3 4 8 14 21 25
28 10 7 18 17 18 23 0 16 -25 10 -38 -11z"/>
<path d="M2777 2013 c-3 -5 -2 -15 4 -23 5 -8 9 -25 9 -38 0 -20 -4 -22 -22
-16 -21 6 -22 6 -8 -12 8 -10 18 -21 21 -24 32 -27 78 -118 94 -185 l18 -77
-54 -49 c-30 -26 -63 -48 -73 -49 -11 0 -16 -3 -13 -6 7 -8 115 23 133 38 8 6
19 -4 34 -29 41 -72 41 -71 20 -108 l-20 -35 29 0 c16 0 34 -6 40 -14 9 -11
-5 -15 -81 -21 -69 -6 -85 -10 -63 -15 26 -6 28 -8 10 -14 -59 -22 -55 -25 30
-19 50 3 94 6 98 7 5 0 19 -19 33 -44 23 -42 24 -52 20 -140 -3 -52 -6 -104
-6 -114 -1 -10 -8 -28 -16 -40 -14 -20 -14 -20 -14 9 -1 17 -7 41 -15 55 -8
14 -14 39 -15 57 0 17 -4 35 -10 38 -6 4 -8 -23 -5 -72 4 -72 4 -77 -11 -58
-15 19 -15 19 -12 1 2 -14 -4 -21 -22 -26 -15 -3 -25 -13 -25 -23 0 -10 -5
-21 -10 -25 -20 -14 -56 -73 -50 -82 3 -6 16 -5 32 1 26 10 42 0 43 -25 0 -4
16 -6 35 -4 19 2 36 0 38 -5 1 -5 157 -9 347 -10 l344 -2 8 41 c7 32 20 51 58
83 57 48 62 61 22 61 -19 0 -32 8 -44 28 -11 16 -18 21 -18 12 0 -12 -8 -15
-35 -12 -32 4 -35 2 -35 -22 0 -14 0 -29 1 -32 1 -9 -24 -24 -32 -18 -4 2 -10
20 -13 39 -4 19 -10 35 -14 35 -7 0 -16 16 -46 79 -19 41 -76 107 -76 88 0 -9
-13 -13 -42 -12 -58 1 -82 13 -67 31 16 19 3 30 -15 14 -22 -18 -94 -4 -101
21 -3 10 1 59 9 109 20 111 20 159 1 184 -15 20 -22 23 -60 28 -11 2 -22 5
-25 8 -3 3 -35 19 -71 37 -60 28 -72 40 -118 109 -45 66 -121 213 -120 231 1
3 -3 9 -8 12 -5 3 -16 16 -25 29 -9 13 -18 20 -21 15z m302 -694 c-17 -13 -26
-14 -31 -6 -13 20 -9 37 8 37 8 0 12 -4 9 -10 -3 -5 -4 -10 0 -10 3 0 11 12
17 28 l12 27 4 -24 c3 -17 -3 -30 -19 -42z m198 -193 c0 -8 -8 -11 -18 -9 -10
3 -15 11 -12 18 6 17 30 9 30 -9z m3 -171 c-17 -21 -34 -4 -25 25 6 20 9 21
23 7 13 -13 13 -19 2 -32z m-280 -5 c0 -5 -5 -10 -11 -10 -5 0 -7 5 -4 10 3 6
8 10 11 10 2 0 4 -4 4 -10z"/>
<path d="M3332 1930 c7 -11 17 -20 22 -20 5 0 1 9 -9 20 -10 11 -20 20 -22 20
-2 0 2 -9 9 -20z"/>
<path d="M2693 1888 c-17 -20 -70 -130 -77 -158 -3 -14 -3 -19 0 -12 3 6 12
12 20 12 16 0 47 58 64 119 12 46 9 60 -7 39z"/>
<path d="M3345 1701 c14 -21 38 -44 53 -52 14 -8 37 -25 49 -39 12 -14 23 -19
23 -12 0 6 -9 21 -20 32 -11 11 -20 29 -20 40 0 17 -3 19 -19 11 -16 -9 -18
-8 -14 8 3 10 0 22 -7 26 -7 4 -10 1 -8 -7 5 -23 -16 -22 -27 0 -5 12 -15 24
-22 26 -7 3 -1 -12 12 -33z"/>
<path d="M2837 1700 c-3 -11 -1 -20 4 -20 5 0 9 9 9 20 0 11 -2 20 -4 20 -2 0
-6 -9 -9 -20z"/>
<path d="M790 1653 c0 -26 -41 -76 -94 -114 -21 -16 -35 -29 -31 -29 4 0 -2
-8 -13 -19 -12 -10 -22 -23 -22 -29 0 -6 -6 -12 -12 -15 -10 -3 -10 -7 -1 -19
17 -20 -5 -50 -38 -53 -13 -1 -43 -5 -66 -9 l-42 -8 -3 -82 c-7 -169 2 -394
16 -399 29 -11 34 7 19 67 -17 68 -17 71 53 251 23 61 45 120 49 132 3 13 33
46 66 74 48 43 59 58 59 83 0 20 11 43 30 65 17 18 30 34 30 35 0 1 4 15 9 32
5 18 5 37 0 45 -7 11 -9 9 -9 -8z"/>
<path d="M3480 1564 c0 -3 9 -17 20 -31 23 -29 25 -25 8 12 -10 22 -28 35 -28
19z"/>
<path d="M2611 1522 c-19 -9 -37 -23 -39 -30 -2 -7 13 -1 34 13 60 41 61 46 5
17z"/>
<path d="M2693 1523 c9 -2 25 -2 35 0 9 3 1 5 -18 5 -19 0 -27 -2 -17 -5z"/>
<path d="M2763 1343 c9 -2 25 -2 35 0 9 3 1 5 -18 5 -19 0 -27 -2 -17 -5z"/>
<path d="M2472 1255 c-56 -13 -104 -45 -68 -45 9 0 27 5 39 12 12 7 51 20 87
29 53 14 58 17 30 17 -19 0 -59 -6 -88 -13z"/>
<path d="M1460 1195 c-17 -20 -6 -30 12 -12 8 8 23 17 34 20 14 3 13 5 -7 6
-15 0 -32 -6 -39 -14z"/>
<path d="M1390 1106 c0 -8 5 -18 10 -21 6 -3 10 1 10 9 0 8 -4 18 -10 21 -5 3
-10 -1 -10 -9z"/>
<path d="M2882 1030 c0 -14 2 -19 5 -12 2 6 2 18 0 25 -3 6 -5 1 -5 -13z"/>
<path d="M570 968 c0 -33 47 -98 70 -98 24 0 27 18 5 27 -9 3 -23 19 -32 36
-8 17 -22 37 -29 45 -12 11 -14 10 -14 -10z"/>
<path d="M1195 688 c-110 -10 -212 -24 -227 -30 -32 -12 -39 -31 -67 -183 -63
-341 -82 -442 -85 -457 -4 -17 18 -18 349 -18 l352 0 -3 293 c-3 317 -8 380
-31 402 -18 18 -34 18 -288 -7z m232 -555 c-12 -3 -16 -12 -13 -29 3 -16 1
-24 -6 -22 -16 6 -19 41 -5 50 7 4 19 7 27 7 11 -1 10 -3 -3 -6z m-47 -27 c0
-8 -4 -18 -10 -21 -6 -4 -7 1 -3 11 5 13 3 16 -10 11 -9 -3 -17 -2 -17 3 0 6
9 10 20 10 11 0 20 -6 20 -14z m-85 -76 c3 -5 -1 -10 -9 -10 -9 0 -16 5 -16
10 0 6 4 10 9 10 6 0 13 -4 16 -10z m80 0 c-3 -5 -11 -10 -16 -10 -6 0 -7 5
-4 10 3 6 11 10 16 10 6 0 7 -4 4 -10z m-38 -16 c-3 -3 -12 -4 -19 -1 -8 3 -5
6 6 6 11 1 17 -2 13 -5z"/>
</g>
</svg>
